<svg xmlns="http://www.w3.org/2000/svg" viewBox="0 0 1000 1000" width="100%" height="100%">
  <defs>
    <pattern id="grid-blossom-fast-lane-chatbot" width="40" height="40" patternUnits="userSpaceOnUse">
      <path d="M 40 0 L 0 0 0 40" fill="none" stroke="rgba(255,255,255,0.03)" stroke-width="1"/>
    </pattern>
    <linearGradient id="glow-blossom-fast-lane-chatbot" x1="0%" y1="0%" x2="100%" y2="100%">
      <stop offset="0%" stop-color="#7A0A15" stop-opacity="0.2" />
      <stop offset="100%" stop-color="#050505" stop-opacity="0" />
    </linearGradient>
  </defs>
  <rect width="1000" height="1000" fill="#050505"/>
  <rect width="1000" height="1000" fill="url(#grid-blossom-fast-lane-chatbot)"/>
  <circle cx="500" cy="500" r="400" fill="url(#glow-blossom-fast-lane-chatbot)"/>
  <path d="M300 300 L700 300 A 100 100 0 0 1 800 400 L800 600 A 100 100 0 0 1 700 700 L400 700 L200 800 L250 650 A 100 100 0 0 1 200 600 L200 400 A 100 100 0 0 1 300 300 Z" stroke="#7A0A15" stroke-width="8" fill="none"/><circle cx="400" cy="500" r="20" fill="#ffffff" opacity="0.5"/><circle cx="500" cy="500" r="20" fill="#ffffff" opacity="0.5"/><circle cx="600" cy="500" r="20" fill="#ffffff" opacity="0.5"/>
</svg>